<?xml version="1.0" encoding="UTF-8"?>
<svg width="24px" height="24px" viewBox="0 0 24 24" version="1.1" xmlns="http://www.w3.org/2000/svg">
    <g stroke="none" stroke-width="1" fill="none" fill-rule="evenodd">
        <path d="M12,15.5 C13.933,15.5 15.5,13.933 15.5,12 C15.5,10.067 13.933,8.5 12,8.5 C10.067,8.5 8.5,10.067 8.5,12 C8.5,13.933 10.067,15.5 12,15.5 Z M12,3 C12.552,3 13,3.448 13,4 C13,4.552 12.552,5 12,5 C11.448,5 11,4.552 11,4 C11,3.448 11.448,3 12,3 Z M12,19 C12.552,19 13,19.448 13,20 C13,20.552 12.552,21 12,21 C11.448,21 11,20.552 11,20 C11,19.448 11.448,19 12,19 Z M3,12 C3,11.448 3.448,11 4,11 C4.552,11 5,11.448 5,12 C5,12.552 4.552,13 4,13 C3.448,13 3,12.552 3,12 Z M19,12 C19,11.448 19.448,11 20,11 C20.552,11 21,11.448 21,12 C21,12.552 20.552,13 20,13 C19.448,13 19,12.552 19,12 Z M3.515,7.515 C3.224,7.806 3.224,8.28 3.515,8.571 C3.806,8.862 4.28,8.862 4.571,8.571 C4.862,8.28 4.862,7.806 4.571,7.515 C4.28,7.224 3.806,7.224 3.515,7.515 Z M19.429,15.429 C19.72,15.72 20.194,15.72 20.485,15.429 C20.776,15.138 20.776,14.664 20.485,14.373 C20.194,14.082 19.72,14.082 19.429,14.373 C19.138,14.664 19.138,15.138 19.429,15.429 Z M3.515,15.429 C3.224,15.72 3.224,16.194 3.515,16.485 C3.806,16.776 4.28,16.776 4.571,16.485 C4.862,16.194 4.862,15.72 4.571,15.429 C4.28,15.138 3.806,15.138 3.515,15.429 Z M19.429,7.515 C19.72,7.806 20.194,7.806 20.485,7.515 C20.776,7.224 20.776,6.75 20.485,6.459 C20.194,6.168 19.72,6.168 19.429,6.459 C19.138,6.75 19.138,7.224 19.429,7.515 Z" fill="#4B5563"/>
    </g>
</svg> 